<svg width="12" height="12" viewBox="0 0 12 12" fill="none" xmlns="http://www.w3.org/2000/svg">
<path d="M1.53033 0.46967C1.23744 0.176777 0.762563 0.176777 0.46967 0.46967C0.176777 0.762563 0.176777 1.23744 0.46967 1.53033L1 1L1.53033 0.46967ZM10.4697 11.5303C10.7626 11.8232 11.2374 11.8232 11.5303 11.5303C11.8232 11.2374 11.8232 10.7626 11.5303 10.4697L11 11L10.4697 11.5303ZM0.46967 10.4697C0.176777 10.7626 0.176777 11.2374 0.46967 11.5303C0.762563 11.8232 1.23744 11.8232 1.53033 11.5303L1 11L0.46967 10.4697ZM11.5303 1.53033C11.8232 1.23744 11.8232 0.762563 11.5303 0.46967C11.2374 0.176777 10.7626 0.176777 10.4697 0.46967L11 1L11.5303 1.53033ZM1 1L0.46967 1.53033L5.46967 6.53033L6 6L6.53033 5.46967L1.53033 0.46967L1 1ZM6 6L5.46967 6.53033L10.4697 11.5303L11 11L11.5303 10.4697L6.53033 5.46967L6 6ZM6 6L5.46967 5.46967L0.46967 10.4697L1 11L1.53033 11.5303L6.53033 6.53033L6 6ZM1 11L1.53033 11.5303L11.5303 1.53033L11 1L10.4697 0.46967L0.46967 10.4697L1 11Z" fill="#0F1729"/>
</svg>
